Coordinates
version=1
nRows=19
nColumns=34
inDegrees=yes

Units are S.I. units (second, meters, Newtons, ...)
If the header above contains a line with 'inDegrees', this indicates whether rotational values are in degrees (yes) or radians (no).

endheader
time	pelvis_tilt	pelvis_list	pelvis_rotation	pelvis_tx	pelvis_ty	pelvis_tz	hip_flexion_r	hip_adduction_r	hip_rotation_r	knee_angle_r	ankle_angle_r	subtalar_angle_r	mtp_angle_r	hip_flexion_l	hip_adduction_l	hip_rotation_l	knee_angle_l	ankle_angle_l	subtalar_angle_l	mtp_angle_l	lumbar_extension	lumbar_bending	lumbar_rotation	arm_flex_r	arm_add_r	arm_rot_r	elbow_flex_r	pro_sup_r	arm_flex_l	arm_add_l	arm_rot_l	elbow_flex_l	pro_sup_l
      2.50000000	      8.11496123	      0.29179742	    -21.52486675	      0.31616358	      1.00183061	      0.12121351	     -5.79115339	     -5.90266667	    -19.58022271	      2.45372221	     10.98602430	     -3.24537305	      0.00000000	     -0.82115214	     -2.83625050	    -18.43487059	      3.47821166	     13.02622472	     -0.61570426	      0.00000000	     -8.00373369	      0.41785154	      2.17186501	     13.36534564	    -17.42741999	     27.69511128	     16.39360784	    118.59811791	     11.62937922	    -15.90214129	     27.17136821	     17.91999322	    114.53915714
      2.51666670	      8.01168630	      0.16399262	    -21.60365705	      0.31542111	      1.00189299	      0.12127527	     -5.66683412	     -5.73290922	    -19.51543357	      2.45927103	     10.75197369	     -3.11066046	      0.00000000	     -0.75926807	     -3.00981999	    -18.49940178	      3.39299395	     12.78415478	     -0.61581436	      0.00000000	     -8.06886053	      0.64031082	      2.10045568	     13.92147196	    -17.25513017	     27.52746750	     16.78016593	    118.63241033	     11.59776676	    -15.42986483	     26.90761734	     17.88195091	    114.52004857
      2.53333330	      7.96603836	      0.17297582	    -21.65273357	      0.31490890	      1.00184924	      0.12137818	     -5.63140139	     -5.68730726	    -19.55383003	      2.34859947	     10.74988756	     -3.10811339	      0.00000000	     -0.70637638	     -3.03082104	    -18.48528189	      3.34377878	     12.75651820	     -0.59967593	      0.00000000	     -8.07596848	      0.64122712	      2.15400976	     14.32521584	    -16.98962019	     27.49788184	     17.04072374	    118.64809519	     11.62863214	    -14.98110261	     26.88612882	     17.96267854	    114.52708099
      2.55000000	      7.94997294	      0.17360464	    -21.61781637	      0.31474431	      1.00185167	      0.12180069	     -5.63892446	     -5.65231746	    -19.55891744	      2.33403865	     10.74084068	     -3.09796638	      0.00000000	     -0.68582238	     -3.06642463	    -18.48509788	      3.32282444	     12.73688751	     -0.59180502	      0.00000000	     -8.05349024	      0.59799437	      2.20686828	     14.56649588	    -16.61845512	     27.51733080	     17.24777369	    118.65877616	     11.63497217	    -14.51745920	     26.92850236	     18.06905566	    114.53961682
      2.56666670	      7.86542920	      0.14623244	    -21.69226101	      0.31362404	      1.00167538	      0.12196352	     -5.50828459	     -5.55308340	    -19.53656000	      2.26785492	     10.66111117	     -3.01774122	      0.00000000	     -0.56596566	     -3.14713088	    -18.51552662	      3.28011871	     12.59699182	     -0.55281213	      0.00000000	     -8.20985670	      0.68707250	      2.14228112	     15.26282154	    -16.31635829	     27.47388765	     17.67726202	    118.67937516	     11.66900809	    -14.08454562	     26.95877302	     18.10828766	    114.56475573
      2.58333330	      7.80844199	      0.09996808	    -21.68063173	      0.31290364	      1.00162190	      0.12239011	     -5.43205043	     -5.43381508	    -19.52204261	      2.28387571	     10.60493003	     -2.96031942	      0.00000000	     -0.47201922	     -3.27818378	    -18.58958084	      3.28662377	     12.47304796	     -0.54663068	      0.00000000	     -8.31708949	      0.74848402	      2.12166505	     15.75845564	    -15.95848241	     27.43936682	     18.01252804	    118.70548575	     11.71135827	    -13.66415750	     27.00908423	     18.21117224	    114.59636102
      2.60000000	      7.78034157	      0.10121786	    -21.61737625	      0.31285974	      1.00174562	      0.12312239	     -5.44928911	     -5.37602016	    -19.53410498	      2.28696551	     10.61183762	     -2.96074308	      0.00000000	     -0.44662530	     -3.33165213	    -18.60766600	      3.28123162	     12.44677137	     -0.54287906	      0.00000000	     -8.30183443	      0.70043942	      2.19287530	     15.99439917	    -15.54856980	     27.45735747	     18.20695718	    118.71755274	     11.74046229	    -13.17573295	     27.07608425	     18.36584849	    114.61587394
      2.61666670	      7.71882479	      0.06197139	    -21.63912314	      0.31190575	      1.00189679	      0.12353699	     -5.35759963	     -5.24729401	    -19.55041585	      2.26500260	     10.62492713	     -2.95332036	      0.00000000	     -0.33114098	     -3.46615938	    -18.66178158	      3.31664666	     12.32080582	     -0.51041233	      0.00000000	     -8.47329351	      0.73728241	      2.19237807	     16.56990055	    -15.16925342	     27.38944316	     18.48255848	    118.73146714	     11.84413119	    -12.68069367	     27.19882204	     18.62973820	    114.66361855
      2.63333330	      7.71316375	      0.05749586	    -21.56296403	      0.31194475	      1.00205769	      0.12444462	     -5.38468600	     -5.18731701	    -19.55663085	      2.30494804	     10.63556274	     -2.96063282	      0.00000000	     -0.32407209	     -3.53386915	    -18.67819150	      3.33871691	     12.30502668	     -0.51184472	      0.00000000	     -8.45939391	      0.66238254	      2.25746965	     16.77035941	    -14.67704487	     27.41376708	     18.66055835	    118.74333672	     11.89877339	    -12.08016090	     27.29610955	     18.85055928	    114.68959351
      2.65000000	      7.80321861	     -0.15553364	    -21.55447792	      0.31054898	      1.00212069	      0.12488981	     -5.31717356	     -4.99526257	    -19.65875048	      2.66086740	     10.72404218	     -3.08484144	      0.00000000	     -0.20086088	     -3.87428083	    -18.84388181	      3.80810183	     12.33075638	     -0.55775218	      0.00000000	     -8.93647510	      0.81124296	      2.31887731	     17.50628412	    -14.15912618	     27.09339913	     18.65234977	    118.80409838	     12.09142971	    -11.60833187	     27.90364443	     19.58057214	    114.92611372
      2.66666670	      7.79229663	     -0.13423748	    -21.44824194	      0.31060336	      1.00189500	      0.12557228	     -5.33967857	     -4.95938424	    -19.66364539	      2.65483662	     10.75143074	     -3.09302487	      0.00000000	     -0.17863266	     -3.90120256	    -18.83637996	      3.79964780	     12.33927113	     -0.54546880	      0.00000000	     -8.91529586	      0.71731741	      2.40418489	     17.68152734	    -13.68314349	     27.13171806	     18.81308856	    118.81900339	     12.17551596	    -10.88378599	     28.02720506	     19.82365487	    114.95645225
      2.68333330	      7.81344430	     -0.12031517	    -21.30374595	      0.30990646	      1.00160498	      0.12496660	     -5.31021129	     -4.97560245	    -19.71827713	      2.68055026	     10.86196511	     -3.17332499	      0.00000000	     -0.04034958	     -3.90106277	    -18.73580795	      3.93922628	     12.36130522	     -0.48021481	      0.00000000	     -9.13403503	      0.74185119	      2.64824873	     18.12688844	    -13.45992768	     27.13508903	     18.88832123	    118.85258889	     12.53248436	     -9.98271906	     28.32682378	     20.25331489	    115.04374696
      2.70000000	      7.73627030	     -0.26846508	    -21.03857439	      0.30866137	      1.00126485	      0.12477593	     -5.00583469	     -4.82976796	    -19.98251626	      3.21189004	     11.13949441	     -3.21836064	      0.00000000	      0.53341787	     -4.29419406	    -18.68972156	      4.84810680	     12.84426916	     -0.37273965	      0.00000000	     -9.29712068	      0.88617120	      3.03868352	     18.62444390	    -13.16808509	     28.22433272	     18.53615245	    119.74817918	     13.58688964	     -9.53826279	     32.96615287	     20.09695220	    116.45638402
      2.71666670	      7.89435279	     -0.26337875	    -20.85259235	      0.30829610	      1.00143058	      0.12427627	     -5.08111625	     -4.91649880	    -20.18323362	      3.38495259	     11.15060640	     -3.37167784	      0.00000000	      0.51248608	     -4.25663305	    -18.54746262	      5.00628043	     12.90864992	     -0.30875784	      0.00000000	     -9.57111663	      0.82629299	      3.52505243	     18.81495201	    -12.96202409	     28.42119249	     18.63438144	    119.74817918	     14.09783174	     -8.60845983	     33.28778972	     20.54889855	    116.52915863
      2.73333330	      8.02121197	     -0.28540418	    -20.61638456	      0.30782061	      1.00161280	      0.12373058	     -5.13269723	     -4.95696456	    -20.36934911	      3.57158747	     11.21661803	     -3.52963176	      0.00000000	      0.56368022	     -4.27626036	    -18.35012386	      5.25150484	     12.96301687	     -0.23102345	      0.00000000	     -9.85686754	      0.81581704	      4.10977160	     19.02086390	    -12.80354345	     28.78383815	     18.64935762	    119.74817918	     14.66452148	     -7.68133708	     33.75638228	     20.99641166	    116.63471825
      2.75000000	      8.04160128	     -0.23876700	    -20.31060435	      0.30748969	      1.00160199	      0.12277917	     -5.15906695	     -5.00736504	    -20.51265915	      3.54155069	     11.31206225	     -3.65387325	      0.00000000	      0.68816847	     -4.20090166	    -18.24923556	      5.30353184	     12.98050498	     -0.16948360	      0.00000000	     -9.99551390	      0.86505398	      4.60276548	     19.28528947	    -12.71116699	     29.01089177	     18.64325995	    119.74817918	     15.15248308	     -6.73457004	     34.04322311	     21.48536945	    116.69867429
      2.76666670	      8.11140480	     -0.26513022	    -20.00011874	      0.30674567	      1.00168109	      0.12230267	     -5.09679746	     -5.01922730	    -20.94343281	      3.84549097	     11.34794894	     -3.76463260	      0.00000000	      0.88154693	     -4.28196831	    -17.91521823	      5.66396833	     13.13785712	     -0.14584143	      0.00000000	    -10.26214963	      0.83925745	      5.54884825	     19.83047247	    -13.18523750	     34.39861610	     18.32545738	    119.74817918	     16.54747020	     -6.26838903	     39.19957097	     21.31212205	    117.81180394
      2.78333330	      8.13989268	     -0.19375363	    -19.63433132	      0.30642581	      1.00179209	      0.12186109	     -5.12917285	     -5.06240206	    -21.19581386	      3.86222551	     11.34753758	     -3.93955463	      0.00000000	      1.01229054	     -4.22491236	    -17.64324500	      5.74811363	     13.03669944	      0.05857978	      0.00000000	    -10.46194929	      0.74473043	      6.39807835	     19.86833305	    -13.14245744	     34.64602636	     18.15180646	    119.74817918	     17.10294274	     -5.42772682	     39.22794836	     21.90834536	    117.78822833
      2.80000000	      8.15391409	     -0.11045194	    -19.26120611	      0.30620804	      1.00188378	      0.12143491	     -5.14598834	     -5.11300373	    -21.50578937	      3.87910154	     11.29241225	     -4.13499725	      0.00000000	      1.13563625	     -4.15297002	    -17.35721112	      5.79825995	     12.98869088	      0.24557657	      0.00000000	    -10.66389569	      0.62359036	      7.32630169	     19.81417335	    -13.17201932	     35.06528295	     17.97984291	    119.74817918	     17.68840242	     -4.62134876	     39.28320567	     22.46748356	    117.77190624
